<?xml version="1.0" encoding="UTF-8"?>
<svg width="71px" height="78px" viewBox="0 0 71 78" version="1.1" xmlns="http://www.w3.org/2000/svg" xmlns:xlink="http://www.w3.org/1999/xlink">
    <title>find_a_job</title>
    <g id="UI" stroke="none" stroke-width="1" fill="none" fill-rule="evenodd">
        <g id="Home-Copy-2" transform="translate(-802.000000, -3450.000000)" fill-rule="nonzero" stroke-width="2">
            <g id="find_a_job" transform="translate(803.000000, 3452.000000)">
                <path d="M34.08,-2.18491891e-13 L65.28,13.68 C64.56,14.04 69.72,11.76 34.08,27.48 L2.88,13.68 L34.08,-2.18491891e-13 Z" id="Path-Copy-13" stroke="#051818" fill="#EC5727"></path>
                <path d="M3.19744231e-14,18 C1.2,18.48 23.4,28.32 31.68,32.04 L31.68,73.68 L3.19744231e-14,59.04 L3.19744231e-14,18 Z" id="Path-Copy-14" stroke="#051818" fill="#EC5727"></path>
                <polygon id="Path-Copy-15" stroke="#051818" fill="#EC5727" points="68.16 59.04 36.48 73.56 36.48 31.92 68.16 17.88"></polygon>
                <g id="Group-13" transform="translate(45.000000, 31.000000)" stroke="#051818">
                    <path d="M13.565821,12.4315277 L11.5452228,18.083791 C11.4522672,18.3438176 11.1661186,18.4792555 10.9060919,18.3862999 C10.7675216,18.3367632 10.6578098,18.2286985 10.6061827,18.0908934 L9.56865111,15.3214745 L9.56865111,15.3214745 L9.93037851,15.1680599 C10.1370799,15.0803945 10.3437813,14.8455656 10.3437813,14.6002932 L10.3437813,13.4720402 C10.3437813,13.2758223 10.1887552,13.1453534 9.93037851,13.2549352 L7.96671546,14.0877569 C7.76001409,14.1754224 7.55331272,14.4102512 7.55331272,14.6555236 L7.55331272,15.7837767 C7.55331272,15.9799946 7.70833875,16.1104634 7.96671546,16.0008816 L8.32844287,15.8474671 L7.19039495,19.214073 C7.10196367,19.4756729 6.81820732,19.6160539 6.5566074,19.5276226 C6.43338122,19.4859672 6.33123894,19.3979297 6.27186096,19.2821968 L4.33127296,15.4998182 L4.33127296,15.4998182 C1.85085648,17.1404572 0.88719343,19.9354581 0.57714137,22.5687348 L0.00871259398,27.9114807 C-0.0946380926,29.0345119 0.7321674,29.6158853 1.9207003,29.1608635 C5.48629899,27.7957981 12.5141457,24.8151731 16.0797444,23.1557808 C17.2166019,22.6245664 18.0950828,21.3199531 17.9917321,20.2845873 L17.3199526,15.467834 C17.0099005,13.0484992 16.0462375,11.9191417 13.565821,12.4315277 Z" id="Path"></path>
                    <path d="M8.5,11.2389169 C11.5375661,10.4753702 14,7.47364276 14,4.53437098 C14,1.5950992 11.5375661,-0.168674463 8.5,0.594872241 C5.46243388,1.35841894 3,4.36014641 3,7.2994182 C3,10.23869 5.46243388,12.0024636 8.5,11.2389169 Z" id="Oval"></path>
                </g>
                <g id="Group-13" transform="translate(46.000000, 31.000000)" stroke="#FFFFFF">
                    <path d="M13.565821,13.4315277 L11.6185561,18.8786541 C11.5256005,19.1386808 11.2394519,19.2741187 10.9794252,19.1811631 C10.8259319,19.1262916 10.7088223,19.0000424 10.6656182,18.8428658 L9.93037851,16.1680599 L9.93037851,16.1680599 C10.1370799,16.0803945 10.3437813,15.8455656 10.3437813,15.6002932 L10.3437813,14.4720402 C10.3437813,14.2758223 10.1887552,14.1453534 9.93037851,14.2549352 L7.96671546,15.0877569 C7.76001409,15.1754224 7.55331272,15.4102512 7.55331272,15.6555236 L7.55331272,16.7837767 C7.55331272,16.9799946 7.70833875,17.1104634 7.96671546,17.0008816 L7.14641003,20.0785478 C7.07529127,20.3453749 6.80133198,20.5040279 6.53450482,20.4329092 C6.39783008,20.3964806 6.28297943,20.3038677 6.21841129,20.1780186 L4.33127296,16.4998182 L4.33127296,16.4998182 C1.85085648,18.1404572 0.88719343,20.9354581 0.57714137,23.5687348 L0.00871259398,28.9114807 C-0.0946380926,30.0345119 0.7321674,30.6158853 1.9207003,30.1608635 C5.48629899,28.7957981 12.5141457,25.8151731 16.0797444,24.1557808 C17.2166019,23.6245664 18.0950828,22.3199531 17.9917321,21.2845873 L17.3199526,16.467834 C17.0099005,14.0484992 16.0462375,12.9191417 13.565821,13.4315277 Z" id="Path"></path>
                    <path d="M8.5,11.2389169 C11.5375661,10.4753702 14,7.47364276 14,4.53437098 C14,1.5950992 11.5375661,-0.168674463 8.5,0.594872241 C5.46243388,1.35841894 3,4.36014641 3,7.2994182 C3,10.23869 5.46243388,12.0024636 8.5,11.2389169 Z" id="Oval"></path>
                </g>
            </g>
        </g>
    </g>
</svg>