<?xml version="1.0" encoding="UTF-8"?>
<svg width="71px" height="78px" viewBox="0 0 71 78" version="1.1" xmlns="http://www.w3.org/2000/svg" xmlns:xlink="http://www.w3.org/1999/xlink">
    <title>Flexible_time_table </title>
    <g id="UI" stroke="none" stroke-width="1" fill="none" fill-rule="evenodd">
        <g id="Home-Copy-2" transform="translate(-137.000000, -3450.000000)" stroke-width="2">
            <g id="Flexible_time_table-" transform="translate(138.000000, 3452.000000)">
                <path d="M34.08,-2.18491891e-13 L65.28,13.68 C64.56,14.04 69.72,11.76 34.08,27.48 L2.88,13.68 L34.08,-2.18491891e-13 Z" id="Path-Copy-5" stroke="#051818" fill="#FFBD58" fill-rule="nonzero"></path>
                <path d="M1.47437618e-13,18 C1.2,18.48 23.4,28.32 31.68,32.04 L31.68,73.68 L1.47437618e-13,59.04 L1.47437618e-13,18 Z" id="Path-Copy-6" stroke="#051818" fill="#FFBD58" fill-rule="nonzero"></path>
                <polygon id="Path-Copy-7" stroke="#051818" fill="#FFBD58" fill-rule="nonzero" points="68.16 59.04 36.48 73.56 36.48 31.92 68.16 17.88"></polygon>
                <g id="Group-9" transform="translate(40.000000, 32.000000)">
                    <path d="M12.2072134,1.24926243 C15.1879854,0.617903345 17.8977528,1.25277051 19.8568555,2.83549203 C21.8148196,4.41729358 23,6.92776919 23,9.9655363 C23,13.1205302 21.7348811,16.2370962 19.7089837,18.7319928 C17.6824323,21.227695 14.887757,23.1097169 11.7927866,23.7652644 C8.81201462,24.3966235 6.10224723,23.7617564 4.14314447,22.1790348 C2.18518043,20.5972333 1,18.0867577 1,15.0489906 C1,11.8939966 2.26511889,8.77743069 4.29101627,6.28253403 C6.31756774,3.78683186 9.11224297,1.90480995 12.2072134,1.24926243 Z" id="Oval" stroke="#051818"></path>
                    <path d="M11.3492605,11.586187 C11.6467314,11.5256999 11.9274182,11.5623647 12.1281394,11.7180372 C12.3092734,11.8585184 12.4,12.0880437 12.4,12.351263 C12.4,12.7307115 12.2291974,13.0993046 11.9774898,13.3968839 C11.7142872,13.708053 11.3542279,13.9493162 10.9507395,14.0313608 C10.6532686,14.091848 10.3725818,14.0551831 10.1718606,13.8995107 C9.99072662,13.7590294 9.9,13.5295041 9.9,13.2662848 C9.9,12.8868363 10.0708026,12.5182432 10.3225102,12.2206639 C10.5857128,11.9094948 10.9457721,11.6682316 11.3492605,11.586187 Z" id="Oval" stroke="#051818"></path>
                    <line x1="12.9424676" y1="11.9133999" x2="19.25" y2="8.64402823" id="Path-17" stroke="#051818" stroke-linecap="round" stroke-linejoin="round"></line>
                    <line x1="11.15" y1="14.4940282" x2="11.15" y2="18.0252918" id="Path-17-Copy" stroke="#051818" stroke-linecap="round" stroke-linejoin="round"></line>
                    <path d="M13.1072134,2.14926243 C16.0879854,1.51790335 18.7977528,2.15277051 20.7568555,3.73549203 C22.7148196,5.31729358 23.9,7.82776919 23.9,10.8655363 C23.9,14.0205302 22.6348811,17.1370962 20.6089837,19.6319928 C18.5824323,22.127695 15.787757,24.0097169 12.6927866,24.6652644 C9.71201462,25.2966235 7.00224723,24.6617564 5.04314447,23.0790348 C3.08518043,21.4972333 1.9,18.9867577 1.9,15.9489906 C1.9,12.7939966 3.16511889,9.67743069 5.19101627,7.18253403 C7.21756774,4.68683186 10.012243,2.80480995 13.1072134,2.14926243 Z" id="Oval" stroke="#FFFFFF"></path>
                    <path d="M12.2492605,12.486187 C12.5467314,12.4256999 12.8274182,12.4623647 13.0281394,12.6180372 C13.2092734,12.7585184 13.3,12.9880437 13.3,13.251263 C13.3,13.6307115 13.1291974,13.9993046 12.8774898,14.2968839 C12.6142872,14.608053 12.2542279,14.8493162 11.8507395,14.9313608 C11.5532686,14.991848 11.2725818,14.9551831 11.0718606,14.7995107 C10.8907266,14.6590294 10.8,14.4295041 10.8,14.1662848 C10.8,13.7868363 10.9708026,13.4182432 11.2225102,13.1206639 C11.4857128,12.8094948 11.8457721,12.5682316 12.2492605,12.486187 Z" id="Oval" stroke="#FFFFFF"></path>
                    <line x1="13.8424676" y1="12.8133999" x2="20.15" y2="9.54402823" id="Path-17" stroke="#FFFFFF" stroke-linecap="round" stroke-linejoin="round"></line>
                    <line x1="12.05" y1="15.3940282" x2="12.05" y2="18.9252918" id="Path-17-Copy" stroke="#FFFFFF" stroke-linecap="round" stroke-linejoin="round"></line>
                </g>
            </g>
        </g>
    </g>
</svg>