<?xml version="1.0" encoding="UTF-8"?>
<svg width="1623px" height="1600px" viewBox="0 0 1623 1600" version="1.1" xmlns="http://www.w3.org/2000/svg" xmlns:xlink="http://www.w3.org/1999/xlink">
    <title>Combined Shape Copy</title>
    <g id="UI" stroke="none" stroke-width="1" fill="none" fill-rule="evenodd" opacity="0.448892503">
        <path d="M837.819149,0 L837.819149,435 M1228.6383,50.088 L782,50.088 M1228.6383,105.848 L782,105.848 M1228.6383,161.608 L782,161.608 M1228.6383,218.728 L782,218.728 M1228.6383,274.488 L782,274.488 M1228.6383,331.608 L782,331.608 M1228.6383,387.368 L782,387.368 M892.819149,0 L892.819149,435 M948.819149,0 L948.819149,435 M1006.81915,0 L1006.81915,435 M1063.81915,0 L1063.81915,435 M1119.81915,0 L1119.81915,435 M1173.81915,0 L1173.81915,435 M837.819149,777 L837.819149,1212 M1228.6383,827.088 L782,827.088 M1228.6383,882.848 L782,882.848 M1228.6383,938.608 L782,938.608 M1228.6383,995.728 L782,995.728 M1228.6383,1051.488 L782,1051.488 M1228.6383,1108.608 L782,1108.608 M1228.6383,1164.368 L782,1164.368 M892.819149,777 L892.819149,1212 M948.819149,777 L948.819149,1212 M1006.81915,777 L1006.81915,1212 M1063.81915,777 L1063.81915,1212 M1119.81915,777 L1119.81915,1212 M1173.81915,777 L1173.81915,1212 M1231.81915,1 L1231.81915,436 M1622.6383,51.088 L1176,51.088 M1622.6383,106.848 L1176,106.848 M1622.6383,162.608 L1176,162.608 M1622.6383,219.728 L1176,219.728 M1622.6383,275.488 L1176,275.488 M1622.6383,332.608 L1176,332.608 M1622.6383,388.368 L1176,388.368 M1286.81915,1 L1286.81915,436 M1342.81915,1 L1342.81915,436 M1400.81915,1 L1400.81915,436 M1457.81915,1 L1457.81915,436 M1513.81915,1 L1513.81915,436 M1567.81915,1 L1567.81915,436 M1231.81915,778 L1231.81915,1213 M1622.6383,828.088 L1176,828.088 M1622.6383,883.848 L1176,883.848 M1622.6383,939.608 L1176,939.608 M1622.6383,996.728 L1176,996.728 M1622.6383,1052.488 L1176,1052.488 M1622.6383,1109.608 L1176,1109.608 M1622.6383,1165.368 L1176,1165.368 M1286.81915,778 L1286.81915,1213 M1342.81915,778 L1342.81915,1213 M1400.81915,778 L1400.81915,1213 M1457.81915,778 L1457.81915,1213 M1513.81915,778 L1513.81915,1213 M1567.81915,778 L1567.81915,1213 M445.819149,0 L445.819149,435 M836.638298,50.088 L390,50.088 M836.638298,105.848 L390,105.848 M836.638298,161.608 L390,161.608 M836.638298,218.728 L390,218.728 M836.638298,274.488 L390,274.488 M836.638298,331.608 L390,331.608 M836.638298,387.368 L390,387.368 M500.819149,0 L500.819149,435 M556.819149,0 L556.819149,435 M614.819149,0 L614.819149,435 M671.819149,0 L671.819149,435 M727.819149,0 L727.819149,435 M781.819149,0 L781.819149,435 M445.819149,777 L445.819149,1212 M836.638298,827.088 L390,827.088 M836.638298,882.848 L390,882.848 M836.638298,938.608 L390,938.608 M836.638298,995.728 L390,995.728 M836.638298,1051.488 L390,1051.488 M836.638298,1108.608 L390,1108.608 M836.638298,1164.368 L390,1164.368 M500.819149,777 L500.819149,1212 M556.819149,777 L556.819149,1212 M614.819149,777 L614.819149,1212 M671.819149,777 L671.819149,1212 M727.819149,777 L727.819149,1212 M781.819149,777 L781.819149,1212 M55.8191489,0 L55.8191489,435 M446.638298,50.088 L1.13686838e-13,50.088 M446.638298,105.848 L1.13686838e-13,105.848 M446.638298,161.608 L1.13686838e-13,161.608 M446.638298,218.728 L5.68434189e-14,218.728 M446.638298,274.488 L5.68434189e-14,274.488 M446.638298,331.608 L5.68434189e-14,331.608 M446.638298,387.368 L5.68434189e-14,387.368 M110.819149,0 L110.819149,435 M166.819149,0 L166.819149,435 M224.819149,0 L224.819149,435 M281.819149,0 L281.819149,435 M337.819149,0 L337.819149,435 M391.819149,0 L391.819149,435 M55.8191489,777 L55.8191489,1212 M446.638298,827.088 L1.13686838e-13,827.088 M446.638298,882.848 L1.13686838e-13,882.848 M446.638298,938.608 L1.13686838e-13,938.608 M446.638298,995.728 L5.68434189e-14,995.728 M446.638298,1051.488 L5.68434189e-14,1051.488 M446.638298,1108.608 L5.68434189e-14,1108.608 M446.638298,1164.368 L5.68434189e-14,1164.368 M110.819149,777 L110.819149,1212 M166.819149,777 L166.819149,1212 M224.819149,777 L224.819149,1212 M281.819149,777 L281.819149,1212 M337.819149,777 L337.819149,1212 M391.819149,777 L391.819149,1212 M837.819149,387 L837.819149,822 M1228.6383,437.088 L782,437.088 M1228.6383,492.848 L782,492.848 M1228.6383,548.608 L782,548.608 M1228.6383,605.728 L782,605.728 M1228.6383,661.488 L782,661.488 M1228.6383,718.608 L782,718.608 M1228.6383,774.368 L782,774.368 M892.819149,387 L892.819149,822 M948.819149,387 L948.819149,822 M1006.81915,387 L1006.81915,822 M1063.81915,387 L1063.81915,822 M1119.81915,387 L1119.81915,822 M1173.81915,387 L1173.81915,822 M837.819149,1164 L837.819149,1599 M1228.6383,1214.088 L782,1214.088 M1228.6383,1269.848 L782,1269.848 M1228.6383,1325.608 L782,1325.608 M1228.6383,1382.728 L782,1382.728 M1228.6383,1438.488 L782,1438.488 M1228.6383,1495.608 L782,1495.608 M1228.6383,1551.368 L782,1551.368 M892.819149,1164 L892.819149,1599 M948.819149,1164 L948.819149,1599 M1006.81915,1164 L1006.81915,1599 M1063.81915,1164 L1063.81915,1599 M1119.81915,1164 L1119.81915,1599 M1173.81915,1164 L1173.81915,1599 M1231.81915,388 L1231.81915,823 M1622.6383,438.088 L1176,438.088 M1622.6383,493.848 L1176,493.848 M1622.6383,549.608 L1176,549.608 M1622.6383,606.728 L1176,606.728 M1622.6383,662.488 L1176,662.488 M1622.6383,719.608 L1176,719.608 M1622.6383,775.368 L1176,775.368 M1286.81915,388 L1286.81915,823 M1342.81915,388 L1342.81915,823 M1400.81915,388 L1400.81915,823 M1457.81915,388 L1457.81915,823 M1513.81915,388 L1513.81915,823 M1567.81915,388 L1567.81915,823 M1231.81915,1165 L1231.81915,1600 M1622.6383,1215.088 L1176,1215.088 M1622.6383,1270.848 L1176,1270.848 M1622.6383,1326.608 L1176,1326.608 M1622.6383,1383.728 L1176,1383.728 M1622.6383,1439.488 L1176,1439.488 M1622.6383,1496.608 L1176,1496.608 M1622.6383,1552.368 L1176,1552.368 M1286.81915,1165 L1286.81915,1600 M1342.81915,1165 L1342.81915,1600 M1400.81915,1165 L1400.81915,1600 M1457.81915,1165 L1457.81915,1600 M1513.81915,1165 L1513.81915,1600 M1567.81915,1165 L1567.81915,1600 M445.819149,387 L445.819149,822 M836.638298,437.088 L390,437.088 M836.638298,492.848 L390,492.848 M836.638298,548.608 L390,548.608 M836.638298,605.728 L390,605.728 M836.638298,661.488 L390,661.488 M836.638298,718.608 L390,718.608 M836.638298,774.368 L390,774.368 M500.819149,387 L500.819149,822 M556.819149,387 L556.819149,822 M614.819149,387 L614.819149,822 M671.819149,387 L671.819149,822 M727.819149,387 L727.819149,822 M781.819149,387 L781.819149,822 M445.819149,1164 L445.819149,1599 M836.638298,1214.088 L390,1214.088 M836.638298,1269.848 L390,1269.848 M836.638298,1325.608 L390,1325.608 M836.638298,1382.728 L390,1382.728 M836.638298,1438.488 L390,1438.488 M836.638298,1495.608 L390,1495.608 M836.638298,1551.368 L390,1551.368 M500.819149,1164 L500.819149,1599 M556.819149,1164 L556.819149,1599 M614.819149,1164 L614.819149,1599 M671.819149,1164 L671.819149,1599 M727.819149,1164 L727.819149,1599 M781.819149,1164 L781.819149,1599 M55.8191489,387 L55.8191489,822 M446.638298,437.088 L1.13686838e-13,437.088 M446.638298,492.848 L1.13686838e-13,492.848 M446.638298,548.608 L1.13686838e-13,548.608 M446.638298,605.728 L5.68434189e-14,605.728 M446.638298,661.488 L5.68434189e-14,661.488 M446.638298,718.608 L5.68434189e-14,718.608 M446.638298,774.368 L5.68434189e-14,774.368 M110.819149,387 L110.819149,822 M166.819149,387 L166.819149,822 M224.819149,387 L224.819149,822 M281.819149,387 L281.819149,822 M337.819149,387 L337.819149,822 M391.819149,387 L391.819149,822 M55.8191489,1164 L55.8191489,1599 M446.638298,1214.088 L1.13686838e-13,1214.088 M446.638298,1269.848 L1.13686838e-13,1269.848 M446.638298,1325.608 L1.13686838e-13,1325.608 M446.638298,1382.728 L5.68434189e-14,1382.728 M446.638298,1438.488 L5.68434189e-14,1438.488 M446.638298,1495.608 L5.68434189e-14,1495.608 M446.638298,1551.368 L5.68434189e-14,1551.368 M110.819149,1164 L110.819149,1599 M166.819149,1164 L166.819149,1599 M224.819149,1164 L224.819149,1599 M281.819149,1164 L281.819149,1599 M337.819149,1164 L337.819149,1599 M391.819149,1164 L391.819149,1599" id="Combined-Shape-Copy" stroke="#693EF4" stroke-width="2"></path>
    </g>
</svg>