<?xml version="1.0" encoding="UTF-8"?>
<svg width="398px" height="386px" viewBox="0 0 398 386" version="1.1" xmlns="http://www.w3.org/2000/svg" xmlns:xlink="http://www.w3.org/1999/xlink">
    <title>Group 8</title>
    <g id="UI" stroke="none" stroke-width="1" fill="none" fill-rule="evenodd">
        <g id="Home-Copy-2" transform="translate(-1044.000000, -188.000000)" stroke="#FBF2E7" stroke-width="2">
            <g id="Group-8" transform="translate(1044.000000, 188.000000)">
                <line x1="49.5" y1="0" x2="49.5" y2="386" id="Path-3"></line>
                <g id="Group-6" transform="translate(199.000000, 194.000000) rotate(-270.000000) translate(-199.000000, -194.000000) translate(48.000000, -5.000000)">
                    <line x1="0.9664" y1="0.604863222" x2="0.9664" y2="397.395137" id="Path-3-Copy-7"></line>
                    <line x1="50.4944" y1="0.604863222" x2="50.4944" y2="397.395137" id="Path-3-Copy-8"></line>
                    <line x1="100.0224" y1="0.604863222" x2="100.0224" y2="397.395137" id="Path-3-Copy-9"></line>
                    <line x1="150.7584" y1="0.604863222" x2="150.7584" y2="397.395137" id="Path-3-Copy-10"></line>
                    <line x1="200.2864" y1="0.604863222" x2="200.2864" y2="397.395137" id="Path-3-Copy-11"></line>
                    <line x1="251.0224" y1="0.604863222" x2="251.0224" y2="397.395137" id="Path-3-Copy-12"></line>
                    <line x1="300.5504" y1="0.604863222" x2="300.5504" y2="397.395137" id="Path-3-Copy-13"></line>
                </g>
                <line x1="99.5" y1="0" x2="99.5" y2="386" id="Path-3-Copy"></line>
                <line x1="148.5" y1="0" x2="148.5" y2="386" id="Path-3-Copy-2"></line>
                <line x1="200.5" y1="0" x2="200.5" y2="386" id="Path-3-Copy-3"></line>
                <line x1="250.5" y1="0" x2="250.5" y2="386" id="Path-3-Copy-4"></line>
                <line x1="300.5" y1="0" x2="300.5" y2="386" id="Path-3-Copy-5"></line>
                <line x1="348.5" y1="0" x2="348.5" y2="386" id="Path-3-Copy-6"></line>
            </g>
        </g>
    </g>
</svg>