<?xml version="1.0" encoding="UTF-8"?>
<svg width="103px" height="102px" viewBox="0 0 103 102" version="1.1" xmlns="http://www.w3.org/2000/svg" xmlns:xlink="http://www.w3.org/1999/xlink">
    <title>noun_design_2683199</title>
    <g id="UI" stroke="none" stroke-width="1" fill="none" fill-rule="evenodd">
        <g id="Home-Copy-2" transform="translate(-661.000000, -447.000000)" fill-rule="nonzero">
            <g id="noun_design_2683199" transform="translate(712.281806, 497.804392) rotate(-59.000000) translate(-712.281806, -497.804392) translate(675.281806, 460.804392)">
                <path d="M41.9271357,31.3514635 L39.635469,31.3514635 L32.760469,31.3514635 C32.2537958,31.3514635 31.8438024,31.7619046 31.8438024,32.2681302 L31.8438024,39.1431302 L31.8438024,41.4347968 C31.8438024,41.9410224 32.2537958,42.3514635 32.760469,42.3514635 L37.3438024,42.3514635 L41.9271357,42.3514635 C42.4338089,42.3514635 42.8438024,41.9410224 42.8438024,41.4347968 L42.8438024,36.8514635 L42.8438024,32.2681302 C42.8438024,31.7619046 42.4338089,31.3514635 41.9271357,31.3514635 Z" id="Shape" fill="#EC5727"></path>
                <path d="M72.8957504,0.351463487 L63.4152309,0.351463487 C62.89121,0.351463487 62.467179,0.775957444 62.467179,1.29951544 L62.467179,5.09172323 L43.032114,5.09172323 L43.032114,1.29951544 C43.032114,0.775957444 42.608083,0.351463487 42.0840621,0.351463487 L32.6035426,0.351463487 C32.0795217,0.351463487 31.6554907,0.775957444 31.6554907,1.29951544 L31.6554907,5.09172323 L12.2204257,5.09172323 L12.2204257,1.29951544 C12.2204257,0.775957444 11.7963947,0.351463487 11.2723738,0.351463487 L1.79185431,0.351463487 C1.26783338,0.351463487 0.843802357,0.775957444 0.843802357,1.29951544 L0.843802357,10.7800349 C0.843802357,11.3035929 1.26783338,11.7280869 1.79185431,11.7280869 L5.5840621,11.7280869 L5.5840621,31.1631518 L1.79185431,31.1631518 C1.26783338,31.1631518 0.843802357,31.5876458 0.843802357,32.1112037 L0.843802357,41.5917232 C0.843802357,42.1152812 1.26783338,42.5397752 1.79185431,42.5397752 L5.5840621,42.5397752 L5.5840621,61.9748401 L1.79185431,61.9748401 C1.26783338,61.9748401 0.843802357,62.3993341 0.843802357,62.9228921 L0.843802357,72.4034115 C0.843802357,72.9269695 1.26783338,73.3514635 1.79185431,73.3514635 L11.2723738,73.3514635 C11.7963947,73.3514635 12.2204257,72.9269695 12.2204257,72.4034115 L12.2204257,68.6112037 L31.6554907,68.6112037 L31.6554907,72.4034115 C31.6554907,72.9269695 32.0795217,73.3514635 32.6035426,73.3514635 L42.0840621,73.3514635 C42.608083,73.3514635 43.032114,72.9269695 43.032114,72.4034115 L43.032114,68.6112037 L62.467179,68.6112037 L62.467179,72.4034115 C62.467179,72.9269695 62.89121,73.3514635 63.4152309,73.3514635 L72.8957504,73.3514635 C73.4197713,73.3514635 73.8438024,72.9269695 73.8438024,72.4034115 L73.8438024,62.9228921 C73.8438024,62.3993341 73.4197713,61.9748401 72.8957504,61.9748401 L69.1035426,61.9748401 L69.1035426,42.5397752 L72.8957504,42.5397752 C73.4197713,42.5397752 73.8438024,42.1152812 73.8438024,41.5917232 L73.8438024,32.1112037 C73.8438024,31.5876458 73.4197713,31.1631518 72.8957504,31.1631518 L69.1035426,31.1631518 L69.1035426,11.7280869 L72.8957504,11.7280869 C73.4197713,11.7280869 73.8438024,11.3035929 73.8438024,10.7800349 L73.8438024,1.29951544 C73.8438024,0.775957444 73.4197713,0.351463487 72.8957504,0.351463487 Z M33.5515946,6.98782712 L33.5515946,5.09172323 L33.5515946,2.24756738 L41.1360101,2.24756738 L41.1360101,5.09172323 L41.1360101,6.98782712 L41.1360101,9.83198297 L33.5515946,9.83198297 L33.5515946,6.98782712 Z M2.73990625,9.83198297 L2.73990625,2.24756738 L10.3243218,2.24756738 L10.3243218,5.09172323 L10.3243218,6.98782712 L10.3243218,9.83198297 L7.48016599,9.83198297 L5.5840621,9.83198297 L2.73990625,9.83198297 Z M2.73990625,40.6436713 L2.73990625,33.0592557 L5.5840621,33.0592557 L7.48016599,33.0592557 L10.3243218,33.0592557 L10.3243218,40.6436713 L7.48016599,40.6436713 L5.5840621,40.6436713 L2.73990625,40.6436713 Z M10.3243218,66.7150999 L10.3243218,68.6112037 L10.3243218,71.4553596 L2.73990625,71.4553596 L2.73990625,63.870944 L5.5840621,63.870944 L7.48016599,63.870944 L10.3243218,63.870944 L10.3243218,66.7150999 Z M41.1360101,66.7150999 L41.1360101,68.6112037 L41.1360101,71.4553596 L33.5515946,71.4553596 L33.5515946,68.6112037 L33.5515946,66.7150999 L33.5515946,63.870944 L41.1360101,63.870944 L41.1360101,66.7150999 Z M62.467179,62.9228921 L62.467179,66.7150999 L43.032114,66.7150999 L43.032114,62.9228921 C43.032114,62.3993341 42.608083,61.9748401 42.0840621,61.9748401 L32.6035426,61.9748401 C32.0795217,61.9748401 31.6554907,62.3993341 31.6554907,62.9228921 L31.6554907,66.7150999 L12.2204257,66.7150999 L12.2204257,62.9228921 C12.2204257,62.3993341 11.7963947,61.9748401 11.2723738,61.9748401 L7.48016599,61.9748401 L7.48016599,42.5397752 L11.2723738,42.5397752 C11.7963947,42.5397752 12.2204257,42.1152812 12.2204257,41.5917232 L12.2204257,32.1112037 C12.2204257,31.5876458 11.7963947,31.1631518 11.2723738,31.1631518 L7.48016599,31.1631518 L7.48016599,11.7280869 L11.2723738,11.7280869 C11.7963947,11.7280869 12.2204257,11.3035929 12.2204257,10.7800349 L12.2204257,6.98782712 L31.6554907,6.98782712 L31.6554907,10.7800349 C31.6554907,11.3035929 32.0795217,11.7280869 32.6035426,11.7280869 L42.0840621,11.7280869 C42.608083,11.7280869 43.032114,11.3035929 43.032114,10.7800349 L43.032114,6.98782712 L62.467179,6.98782712 L62.467179,10.7800349 C62.467179,11.3035929 62.89121,11.7280869 63.4152309,11.7280869 L67.2074387,11.7280869 L67.2074387,31.1631518 L63.4152309,31.1631518 C62.89121,31.1631518 62.467179,31.5876458 62.467179,32.1112037 L62.467179,41.5917232 C62.467179,42.1152812 62.89121,42.5397752 63.4152309,42.5397752 L67.2074387,42.5397752 L67.2074387,61.9748401 L63.4152309,61.9748401 C62.89121,61.9748401 62.467179,62.3993341 62.467179,62.9228921 Z M71.9476985,63.870944 L71.9476985,71.4553596 L64.3632829,71.4553596 L64.3632829,68.6112037 L64.3632829,66.7150999 L64.3632829,63.870944 L67.2074387,63.870944 L69.1035426,63.870944 L71.9476985,63.870944 Z M71.9476985,33.0592557 L71.9476985,40.6436713 L69.1035426,40.6436713 L67.2074387,40.6436713 L64.3632829,40.6436713 L64.3632829,33.0592557 L67.2074387,33.0592557 L69.1035426,33.0592557 L71.9476985,33.0592557 Z M71.9476985,9.83198297 L69.1035426,9.83198297 L67.2074387,9.83198297 L64.3632829,9.83198297 L64.3632829,6.98782712 L64.3632829,5.09172323 L64.3632829,2.24756738 L71.9476985,2.24756738 L71.9476985,9.83198297 Z" id="Shape" fill="#FFFFFF"></path>
            </g>
        </g>
    </g>
</svg>