<?xml version="1.0" encoding="UTF-8"?>
<svg width="71px" height="78px" viewBox="0 0 71 78" version="1.1" xmlns="http://www.w3.org/2000/svg" xmlns:xlink="http://www.w3.org/1999/xlink">
    <title>Learn_From_Anywhere</title>
    <g id="UI" stroke="none" stroke-width="1" fill="none" fill-rule="evenodd">
        <g id="Home-Copy-2" transform="translate(-801.000000, -3135.000000)" fill-rule="nonzero" stroke-width="2">
            <g id="Learn_From_Anywhere" transform="translate(802.000000, 3137.000000)">
                <path d="M34.08,-2.18491891e-13 L65.28,13.68 C64.56,14.04 69.72,11.76 34.08,27.48 L2.88,13.68 L34.08,-2.18491891e-13 Z" id="Path-Copy-5" stroke="#051818" fill="#4CAC62"></path>
                <path d="M1.47437618e-13,18 C1.2,18.48 23.4,28.32 31.68,32.04 L31.68,73.68 L1.47437618e-13,59.04 L1.47437618e-13,18 Z" id="Path-Copy-6" stroke="#051818" fill="#4CAC62"></path>
                <polygon id="Path-Copy-7" stroke="#051818" fill="#4CAC62" points="68.16 59.04 36.48 73.56 36.48 31.92 68.16 17.88"></polygon>
                <polygon id="Path-Copy-8" stroke="#051818" points="47 39.4353448 43 41 43 36.512931 47 35"></polygon>
                <polygon id="Path-Copy-9" stroke="#051818" points="63 51.6530172 57 54 57 47.2693966 63 45"></polygon>
                <polygon id="Path" stroke="#000000" fill="#000000" points="63 33.0278451 55.6621647 35.4664303 47.6740941 54.8540164 45.6876235 47.475021 43 48.7525383 43 49.135286 45.3801412 48.0039253 47.5402824 56.0278451 55.9010588 35.7356236 63 33.4105928"></polygon>
                <polygon id="Path-Copy-8" stroke="#FFFDF7" points="48 40.4353448 44 42 44 37.512931 48 36"></polygon>
                <polygon id="Path-Copy-9" stroke="#FFFDF7" points="64 52.6530172 58 55 58 48.2693966 64 46"></polygon>
                <polygon id="Path" stroke="#FFFDF7" points="63 34.0278451 56.6621647 36.4664303 48.6740941 55.8540164 46.6876235 48.475021 44 49.7525383 44 50.135286 46.3801412 49.0039253 48.5402824 57.0278451 56.9010588 36.7356236 63 34.4105928"></polygon>
            </g>
        </g>
    </g>
</svg>