<?xml version="1.0" encoding="UTF-8"?>
<svg width="90px" height="27px" viewBox="0 0 90 27" version="1.1" xmlns="http://www.w3.org/2000/svg" xmlns:xlink="http://www.w3.org/1999/xlink">
    <title>Group 10</title>
    <g id="UI" stroke="none" stroke-width="1" fill="none" fill-rule="evenodd">
        <g id="Home-Copy-2" transform="translate(-139.000000, -90.000000)" fill-rule="nonzero">
            <g id="Group-10" transform="translate(140.893555, 91.661133)">
                <path d="M8.15917969,23.6318359 C9.45800781,23.6318359 10.6713867,23.3803711 11.7993164,22.8774414 C12.9272461,22.3745117 13.7988281,21.6982422 14.4140625,20.8486328 L14.4140625,20.8486328 L12.1582031,18.1826172 C11.2792969,19.2763672 10.0585938,19.8232422 8.49609375,19.8232422 C7.54882813,19.8232422 6.77734375,19.5693359 6.18164062,19.0615234 C5.5859375,18.5537109 5.20019531,17.8554688 5.02441406,16.9667969 L5.02441406,16.9667969 L14.8388672,16.9667969 L14.8388672,15.0478516 C14.8388672,12.5771484 14.1943359,10.6508789 12.9052734,9.26904297 C11.6162109,7.88720703 9.85839844,7.19628906 7.63183594,7.19628906 C6.04980469,7.19628906 4.68261719,7.53564453 3.53027344,8.21435547 C2.37792969,8.89306641 1.50146484,9.85253906 0.900878906,11.0927734 C0.300292969,12.3330078 0,13.7636719 0,15.3847656 L0,15.3847656 L0,15.7949219 C0,18.1191406 0.751953125,20.0063477 2.25585938,21.456543 C3.75976562,22.9067383 5.72753906,23.6318359 8.15917969,23.6318359 Z M10.0048828,13.8759766 L5.02441406,13.8759766 C5.29785156,11.9619141 6.15722656,11.0048828 7.60253906,11.0048828 C8.38378906,11.0048828 8.984375,11.222168 9.40429688,11.6567383 C9.82421875,12.0913086 10.0244141,12.7041016 10.0048828,13.4951172 L10.0048828,13.4951172 L10.0048828,13.8759766 Z" id="e" stroke="#EC5727" stroke-width="0.5" fill="#EC5727"></path>
                <path d="M28.3692801,23.6318359 C30.820452,23.6318359 32.7491629,23.0996094 34.1554129,22.0351562 C35.5616629,20.9707031 36.2647879,19.5058594 36.2647879,17.640625 C36.2647879,15.3066406 35.1124442,13.4755859 32.8077567,12.1474609 C31.8604911,11.6005859 30.6495536,11.090332 29.1749442,10.6166992 C27.7003348,10.1430664 26.6700614,9.68408203 26.0841239,9.23974609 C25.4981864,8.79541016 25.2052176,8.29980469 25.2052176,7.75292969 C25.2052176,7.12792969 25.4713309,6.61279297 26.0035575,6.20751953 C26.535784,5.80224609 27.2608817,5.59960938 28.1788504,5.59960938 C29.0870536,5.59960938 29.8072684,5.83886719 30.339495,6.31738281 C30.8717215,6.79589844 31.1378348,7.46972656 31.1378348,8.33886719 L31.1378348,8.33886719 L36.2647879,8.33886719 C36.2647879,7.04003906 35.9278739,5.88525391 35.2540458,4.87451172 C34.5802176,3.86376953 33.6353934,3.08496094 32.4195731,2.53808594 C31.2037528,1.99121094 29.8292411,1.71777344 28.2960379,1.71777344 C26.7237723,1.71777344 25.3077567,1.96923828 24.0479911,2.47216797 C22.7882254,2.97509766 21.8141044,3.67822266 21.1256278,4.58154297 C20.4371512,5.48486328 20.0929129,6.52734375 20.0929129,7.70898438 C20.0929129,10.0820312 21.4747489,11.9472656 24.2384208,13.3046875 C25.0880301,13.7246094 26.1817801,14.1591797 27.5196708,14.6083984 C28.8575614,15.0576172 29.79262,15.4921875 30.3248465,15.9121094 C30.8570731,16.3320312 31.1231864,16.9179688 31.1231864,17.6699219 C31.1231864,18.3339844 30.8766044,18.8491211 30.3834403,19.215332 C29.8902762,19.581543 29.2188895,19.7646484 28.3692801,19.7646484 C27.0411551,19.7646484 26.0816825,19.4936523 25.4908622,18.9516602 C24.9000419,18.409668 24.6046317,17.5673828 24.6046317,16.4248047 L24.6046317,16.4248047 L19.4483817,16.4248047 C19.4483817,17.8310547 19.8023856,19.0737305 20.5103934,20.152832 C21.2184012,21.2319336 22.2730887,22.081543 23.6744559,22.7016602 C25.0758231,23.3217773 26.6407645,23.6318359 28.3692801,23.6318359 Z M46.719029,23.3388672 L46.719029,18.8271484 L48.1106306,17.4355469 L51.5676618,23.3388672 L57.2219587,23.3388672 L51.30399,14.0078125 L56.8557478,7.48925781 L50.937779,7.48925781 L47.2170759,12.1181641 L46.719029,12.7773438 L46.719029,0.82421875 L41.7825056,0.82421875 L41.7825056,23.3388672 L46.719029,23.3388672 Z M63.9261998,4.8046875 C64.7367467,4.8046875 65.3959263,4.58007812 65.9037388,4.13085938 C66.4115513,3.68164062 66.6654576,3.10546875 66.6654576,2.40234375 C66.6654576,1.69921875 66.4115513,1.12304688 65.9037388,0.673828125 C65.3959263,0.224609375 64.7367467,0 63.9261998,0 C63.1156529,0 62.4564732,0.224609375 61.9486607,0.673828125 C61.4408482,1.12304688 61.186942,1.69921875 61.186942,2.40234375 C61.186942,3.10546875 61.4408482,3.68164062 61.9486607,4.13085938 C62.4564732,4.58007812 63.1156529,4.8046875 63.9261998,4.8046875 Z M66.4310826,23.3388672 L66.4310826,7.48925781 L61.4799107,7.48925781 L61.4799107,23.3388672 L66.4310826,23.3388672 Z M76.7495815,23.3388672 L76.7495815,0.838867188 L71.7984096,0.838867188 L71.7984096,23.3388672 L76.7495815,23.3388672 Z M87.0680804,23.3388672 L87.0680804,0.838867188 L82.1169085,0.838867188 L82.1169085,23.3388672 L87.0680804,23.3388672 Z" id="Skill" stroke="#FFFFFF" fill="#FFFFFF"></path>
            </g>
        </g>
    </g>
</svg>