<?xml version="1.0" encoding="UTF-8"?>
<svg width="71px" height="78px" viewBox="0 0 71 78" version="1.1" xmlns="http://www.w3.org/2000/svg" xmlns:xlink="http://www.w3.org/1999/xlink">
    <title>pay_after_icon</title>
    <g id="UI" stroke="none" stroke-width="1" fill="none" fill-rule="evenodd">
        <g id="Home-Copy-2" transform="translate(-134.000000, -3135.000000)" fill-rule="nonzero">
            <g id="pay_after_icon" transform="translate(135.000000, 3137.000000)">
                <path d="M34.08,-2.18491891e-13 L65.28,13.68 C64.56,14.04 69.72,11.76 34.08,27.48 L2.88,13.68 L34.08,-2.18491891e-13 Z" id="Path-Copy-10" stroke="#051818" stroke-width="2" fill="#693EF4"></path>
                <path d="M1.47437618e-13,18 C1.2,18.48 23.4,28.32 31.68,32.04 L31.68,73.68 L1.47437618e-13,59.04 L1.47437618e-13,18 Z" id="Path-Copy-11" stroke="#051818" stroke-width="2" fill="#693EF4"></path>
                <polygon id="Path-Copy-12" stroke="#051818" stroke-width="2" fill="#693EF4" points="68.16 59.04 36.48 73.56 36.48 31.92 68.16 17.88"></polygon>
                <path d="M54.1983784,56.2252903 L54.1983784,53.9336205 C55.0542342,53.3594431 55.78997,52.6887501 56.4055856,51.9215416 C57.0212012,51.154333 57.4941742,50.3415011 57.8245045,49.4830458 C58.1548348,48.6245904 58.32,47.7905011 58.32,46.9807778 C58.32,46.1252211 58.1923724,45.4409234 57.9371171,44.9278847 C57.6818619,44.4148461 57.3402703,44.0115929 56.9123423,43.7181253 C56.4844144,43.4246577 56.0151952,43.1850247 55.5046847,42.9992263 L53.9731532,42.5105812 C53.5377177,42.3588463 53.1360661,42.1613288 52.7681982,41.9180287 C52.4003303,41.6747286 52.2163964,41.1864114 52.2163964,40.453077 C52.2163964,40.1322432 52.3064865,39.7606189 52.4866667,39.3382039 C52.6668468,38.915789 52.9446246,38.5987677 53.32,38.3871402 C53.6653453,38.1771652 53.9168468,38.1384999 54.0745045,38.2711444 C54.2321622,38.403789 54.3372673,38.6615476 54.3898198,39.0444203 C54.4423724,39.427293 54.4761562,39.8894972 54.4911712,40.4310329 L57.9821622,38.02748 C57.9671471,37.5317778 57.9108408,37.0173406 57.8132432,36.4841685 C57.7156456,35.9509964 57.5354655,35.4949379 57.2727027,35.1159931 C57.0099399,34.7370483 56.6157958,34.516201 56.0902703,34.4534512 C55.5647447,34.3907014 54.8665465,34.5818977 53.9956757,35.02704 L53.9956757,32.8728704 L52.847027,33.5204505 L52.847027,35.6975368 C51.4656456,36.5832706 50.3657958,37.6693119 49.5474775,38.955661 C48.7291592,40.24201 48.32,41.61088 48.32,43.0622709 C48.32,43.8567164 48.4326126,44.4769096 48.6578378,44.9228506 C48.8830631,45.3687915 49.1796096,45.7057732 49.5474775,45.9337955 C49.9153453,46.1618179 50.3245045,46.3551028 50.774955,46.5136504 L52.3740541,47.0100359 C52.9896697,47.1976898 53.4739039,47.4555938 53.8267568,47.783748 C54.1796096,48.1119023 54.356036,48.6579243 54.356036,49.4218143 C54.356036,49.742648 54.2922222,50.0841807 54.1645946,50.4464122 C54.036967,50.8086437 53.7629429,51.1082709 53.3425225,51.3452937 C53.0121922,51.5315258 52.7306607,51.5833019 52.4979279,51.5006217 C52.2651952,51.4179416 52.0887688,51.1660171 51.9686486,50.7448484 C51.8485285,50.3236796 51.780961,49.720105 51.7659459,48.9341246 L48.32,51.4039489 C48.3800601,53.3256468 48.7967267,54.5383117 49.57,55.0419437 C50.3432733,55.5455757 51.5031832,55.3996336 53.0497297,54.6041173 L53.0497297,56.8728704 L54.1983784,56.2252903 Z" id="$-copy-2" fill="#000000"></path>
                <path d="M56.1983784,57.2252903 L56.1983784,54.9336205 C57.0542342,54.3594431 57.78997,53.6887501 58.4055856,52.9215416 C59.0212012,52.154333 59.4941742,51.3415011 59.8245045,50.4830458 C60.1548348,49.6245904 60.32,48.7905011 60.32,47.9807778 C60.32,47.1252211 60.1923724,46.4409234 59.9371171,45.9278847 C59.6818619,45.4148461 59.3402703,45.0115929 58.9123423,44.7181253 C58.4844144,44.4246577 58.0151952,44.1850247 57.5046847,43.9992263 L55.9731532,43.5105812 C55.5377177,43.3588463 55.1360661,43.1613288 54.7681982,42.9180287 C54.4003303,42.6747286 54.2163964,42.1864114 54.2163964,41.453077 C54.2163964,41.1322432 54.3064865,40.7606189 54.4866667,40.3382039 C54.6668468,39.915789 54.9446246,39.5987677 55.32,39.3871402 C55.6653453,39.1771652 55.9168468,39.1384999 56.0745045,39.2711444 C56.2321622,39.403789 56.3372673,39.6615476 56.3898198,40.0444203 C56.4423724,40.427293 56.4761562,40.8894972 56.4911712,41.4310329 L59.9821622,39.02748 C59.9671471,38.5317778 59.9108408,38.0173406 59.8132432,37.4841685 C59.7156456,36.9509964 59.5354655,36.4949379 59.2727027,36.1159931 C59.0099399,35.7370483 58.6157958,35.516201 58.0902703,35.4534512 C57.5647447,35.3907014 56.8665465,35.5818977 55.9956757,36.02704 L55.9956757,33.8728704 L54.847027,34.5204505 L54.847027,36.6975368 C53.4656456,37.5832706 52.3657958,38.6693119 51.5474775,39.955661 C50.7291592,41.24201 50.32,42.61088 50.32,44.0622709 C50.32,44.8567164 50.4326126,45.4769096 50.6578378,45.9228506 C50.8830631,46.3687915 51.1796096,46.7057732 51.5474775,46.9337955 C51.9153453,47.1618179 52.3245045,47.3551028 52.774955,47.5136504 L54.3740541,48.0100359 C54.9896697,48.1976898 55.4739039,48.4555938 55.8267568,48.783748 C56.1796096,49.1119023 56.356036,49.6579243 56.356036,50.4218143 C56.356036,50.742648 56.2922222,51.0841807 56.1645946,51.4464122 C56.036967,51.8086437 55.7629429,52.1082709 55.3425225,52.3452937 C55.0121922,52.5315258 54.7306607,52.5833019 54.4979279,52.5006217 C54.2651952,52.4179416 54.0887688,52.1660171 53.9686486,51.7448484 C53.8485285,51.3236796 53.780961,50.720105 53.7659459,49.9341246 L50.32,52.4039489 C50.3800601,54.3256468 50.7967267,55.5383117 51.57,56.0419437 C52.3432733,56.5455757 53.5031832,56.3996336 55.0497297,55.6041173 L55.0497297,57.8728704 L56.1983784,57.2252903 Z" id="$-copy-3" fill="#FFFFFF"></path>
            </g>
        </g>
    </g>
</svg>