<?xml version="1.0" encoding="UTF-8"?>
<svg width="107px" height="161px" viewBox="0 0 107 161" version="1.1" xmlns="http://www.w3.org/2000/svg" xmlns:xlink="http://www.w3.org/1999/xlink">
    <title>Group 17</title>
    <g id="UI" stroke="none" stroke-width="1" fill="none" fill-rule="evenodd">
        <g id="Course-page-Copy" transform="translate(-138.000000, -6391.000000)" fill-rule="nonzero" stroke="#000000" stroke-width="2">
            <g id="Group-17" transform="translate(139.000000, 6392.000000)">
                <g id="noun_Question_882781-Copy-2" transform="translate(7.000000, 0.000000)">
                    <path d="M85.8395778,42.0019412 C85.725066,41.8057483 85.562533,41.6428711 85.3649077,41.5281168 L13.9094987,0.173982394 C13.7118734,0.0592280491 13.4865435,0 13.2630607,0 C13.0395778,0 12.816095,0.0573771725 12.6147757,0.173982394 L0.646437995,7.10921676 C0.247493404,7.34242721 0,7.76812881 0,8.23084794 L0,39.7087051 C0,40.1714243 0.247493404,40.5989768 0.64828496,40.8303363 L28.0443272,56.6738394 C28.2437995,56.7885938 28.4672823,56.8478218 28.6907652,56.8478218 C28.914248,56.8478218 29.1377309,56.7904447 29.3372032,56.6738394 C29.7379947,56.4424799 29.9854881,56.0149274 29.9854881,55.5522083 L29.9854881,34.7316981 L32.1427441,33.4879091 L33.1493404,34.05983 L64.9189974,52.4445866 L68.0459103,57.8565495 L68.0459103,77.1834023 L68.0459103,78.2772703 L65.907124,79.3544805 L48.0672823,69.0154842 C47.86781,68.8988789 47.6443272,68.8396509 47.4189974,68.8396509 C47.1936675,68.8396509 46.9738786,68.8970281 46.7725594,69.0136333 L34.7414248,75.9655255 C34.3406332,76.1968851 34.0931398,76.6244376 34.0931398,77.0871567 L34.0931398,105.860883 C34.0931398,106.323602 34.3406332,106.751155 34.7414248,106.982514 L62.1208443,122.826018 C62.3184697,122.940772 62.5437995,123 62.7672823,123 C62.9907652,123 63.2124011,122.942623 63.4137203,122.826018 C63.8145119,122.594658 64.0620053,122.167106 64.0620053,121.704386 L64.0620053,103.345542 L65.8572559,102.338665 L66.8121372,102.884674 L84.0757256,112.870153 C84.2751979,112.984907 84.4986807,113.044135 84.7221636,113.044135 C84.9456464,113.044135 85.1672823,112.986758 85.3686016,112.870153 L97.351715,105.951576 C97.7525066,105.720217 98,105.292664 98,104.829945 L98,63.425837 C98,63.1981792 97.9408971,62.9742232 97.8263852,62.7761794 L85.8395778,42.0019412 Z" id="Path"></path>
                    <path d="M61.9920498,154.826509 C62.1964748,154.940939 62.4295575,155 62.6607297,155 C62.8919019,155 63.1211636,154.942785 63.3294096,154.826509 C63.7439911,154.595804 64,154.169459 64,153.708048 L64,134.103599 C64,133.642188 63.7439911,133.215843 63.3313201,132.985138 L35.0098607,117.173491 C34.8035252,117.059061 34.572353,117 34.3392703,117 C34.1061876,117 33.8788364,117.057215 33.6705904,117.173491 C33.2560089,117.404196 33,117.830541 33,118.291952 L33,137.911166 C33,138.372578 33.2560089,138.798922 33.6705904,139.029627 L61.9920498,154.826509 Z" id="Path"></path>
                </g>
                <g id="noun_Question_882781-Copy-4" transform="translate(0.000000, 4.000000)" fill="#693EF4">
                    <path d="M85.8395778,42.0019412 C85.725066,41.8057483 85.562533,41.6428711 85.3649077,41.5281168 L13.9094987,0.173982394 C13.7118734,0.0592280491 13.4865435,0 13.2630607,0 C13.0395778,0 12.816095,0.0573771725 12.6147757,0.173982394 L0.646437995,7.10921676 C0.247493404,7.34242721 0,7.76812881 0,8.23084794 L0,39.7087051 C0,40.1714243 0.247493404,40.5989768 0.64828496,40.8303363 L28.0443272,56.6738394 C28.2437995,56.7885938 28.4672823,56.8478218 28.6907652,56.8478218 C28.914248,56.8478218 29.1377309,56.7904447 29.3372032,56.6738394 C29.7379947,56.4424799 29.9854881,56.0149274 29.9854881,55.5522083 L29.9854881,34.7316981 L32.1427441,33.4879091 L33.1493404,34.05983 L64.9189974,52.4445866 L68.0459103,57.8565495 L68.0459103,77.1834023 L68.0459103,78.2772703 L65.907124,79.3544805 L48.0672823,69.0154842 C47.86781,68.8988789 47.6443272,68.8396509 47.4189974,68.8396509 C47.1936675,68.8396509 46.9738786,68.8970281 46.7725594,69.0136333 L34.7414248,75.9655255 C34.3406332,76.1968851 34.0931398,76.6244376 34.0931398,77.0871567 L34.0931398,105.860883 C34.0931398,106.323602 34.3406332,106.751155 34.7414248,106.982514 L62.1208443,122.826018 C62.3184697,122.940772 62.5437995,123 62.7672823,123 C62.9907652,123 63.2124011,122.942623 63.4137203,122.826018 C63.8145119,122.594658 64.0620053,122.167106 64.0620053,121.704386 L64.0620053,103.345542 L65.8572559,102.338665 L66.8121372,102.884674 L84.0757256,112.870153 C84.2751979,112.984907 84.4986807,113.044135 84.7221636,113.044135 C84.9456464,113.044135 85.1672823,112.986758 85.3686016,112.870153 L97.351715,105.951576 C97.7525066,105.720217 98,105.292664 98,104.829945 L98,63.425837 C98,63.1981792 97.9408971,62.9742232 97.8263852,62.7761794 L85.8395778,42.0019412 Z" id="Path"></path>
                    <path d="M61.9920498,154.826509 C62.1964748,154.940939 62.4295575,155 62.6607297,155 C62.8919019,155 63.1211636,154.942785 63.3294096,154.826509 C63.7439911,154.595804 64,154.169459 64,153.708048 L64,134.103599 C64,133.642188 63.7439911,133.215843 63.3313201,132.985138 L35.0098607,117.173491 C34.8035252,117.059061 34.572353,117 34.3392703,117 C34.1061876,117 33.8788364,117.057215 33.6705904,117.173491 C33.2560089,117.404196 33,117.830541 33,118.291952 L33,137.911166 C33,138.372578 33.2560089,138.798922 33.6705904,139.029627 L61.9920498,154.826509 Z" id="Path"></path>
                </g>
            </g>
        </g>
    </g>
</svg>