<?xml version="1.0" encoding="UTF-8"?>
<svg width="65px" height="111px" viewBox="0 0 65 111" version="1.1" xmlns="http://www.w3.org/2000/svg" xmlns:xlink="http://www.w3.org/1999/xlink">
    <title>question_orange</title>
    <g id="UI" stroke="none" stroke-width="1" fill="none" fill-rule="evenodd">
        <g id="Home-Copy-2" transform="translate(-311.000000, -5605.000000)" fill-rule="nonzero" stroke="#000000" stroke-width="2">
            <g id="question_orange" transform="translate(312.000000, 5606.000000)">
                <path d="M50.8030155,28.6842525 C50.7352431,28.5502671 50.6390501,28.4390339 50.5220882,28.3606651 L8.23215228,0.118817245 C8.11519035,0.0404484237 7.98183189,0 7.84956653,0 C7.71730117,0 7.58503581,0.0391844105 7.46588767,0.118817245 L0.382585752,4.85507486 C0.146475688,5.01434053 0,5.30506358 0,5.62106689 L0,27.1181401 C0,27.4341434 0.146475688,27.7261305 0.383678854,27.8841321 L16.597663,38.7040855 C16.7157181,38.7824543 16.8479834,38.8229027 16.9802488,38.8229027 C17.1125141,38.8229027 17.2447795,38.7837183 17.3628345,38.7040855 C17.6000377,38.5460838 17.7465134,38.2540968 17.7465134,37.9380934 L17.7465134,23.7192085 L19.0232567,22.8697916 L19.6189974,23.2603717 L38.4214474,35.8158152 L40.2720694,39.5117899 L40.2720694,52.7106162 L40.2720694,53.457648 L39.0062571,54.1933037 L28.4479834,47.1325258 C28.3299284,47.0528929 28.197663,47.0124445 28.0643046,47.0124445 C27.9309461,47.0124445 27.8008669,47.0516289 27.6817188,47.1312618 L20.5612514,51.8788955 C20.3240482,52.0368971 20.1775726,52.3288842 20.1775726,52.6448875 L20.1775726,72.2952374 C20.1775726,72.6112407 20.3240482,72.9032277 20.5612514,73.0612294 L36.7653977,83.8811828 C36.8823596,83.9595516 37.0157181,84 37.1479834,84 C37.2802488,84 37.411421,83.9608156 37.5305692,83.8811828 C37.7677723,83.7231811 37.914248,83.431194 37.914248,83.1151907 L37.914248,70.5774434 L38.9767433,69.8898202 L39.5418771,70.2627041 L49.7591029,77.0820555 C49.8771579,77.1604243 50.0094233,77.2008728 50.1416887,77.2008728 C50.273954,77.2008728 50.4051263,77.1616884 50.5242744,77.0820555 L57.6163211,72.357174 C57.8535243,72.1991724 58,71.9071853 58,71.591182 L58,43.3152058 C58,43.1597321 57.9650207,43.0067865 57.8972484,42.8715371 L50.8030155,28.6842525 Z" id="Path" transform="translate(29.000000, 42.000000) scale(-1, 1) translate(-29.000000, -42.000000) "></path>
                <path d="M36.8340934,105.881296 C36.9527918,105.95959 37.0881302,106 37.2223592,106 C37.3565882,106 37.4897079,105.960853 37.6106249,105.881296 C37.8513497,105.723445 38,105.431735 38,105.116033 L38,91.7024625 C38,91.3867599 37.8513497,91.0950508 37.6117343,90.9371995 L21.1670159,80.1187042 C21.0472082,80.0404099 20.9129792,80 20.7776408,80 C20.6423025,80 20.5102921,80.0391471 20.3893751,80.1187042 C20.1486503,80.2765554 20,80.5682646 20,80.8839672 L20,94.30764 C20,94.6233426 20.1486503,94.9150517 20.3893751,95.072903 L36.8340934,105.881296 Z" id="Path" transform="translate(29.000000, 93.000000) scale(-1, 1) translate(-29.000000, -93.000000) "></path>
                <path d="M55.8030155,31.6842525 C55.7352431,31.5502671 55.6390501,31.4390339 55.5220882,31.3606651 L13.2321523,3.11881724 C13.1151904,3.04044842 12.9818319,3 12.8495665,3 C12.7173012,3 12.5850358,3.03918441 12.4658877,3.11881724 L5.38258575,7.85507486 C5.14647569,8.01434053 5,8.30506358 5,8.62106689 L5,30.1181401 C5,30.4341434 5.14647569,30.7261305 5.38367885,30.8841321 L21.597663,41.7040855 C21.7157181,41.7824543 21.8479834,41.8229027 21.9802488,41.8229027 C22.1125141,41.8229027 22.2447795,41.7837183 22.3628345,41.7040855 C22.6000377,41.5460838 22.7465134,41.2540968 22.7465134,40.9380934 L22.7465134,26.7192085 L24.0232567,25.8697916 L24.6189974,26.2603717 L43.4214474,38.8158152 L45.2720694,42.5117899 L45.2720694,55.7106162 L45.2720694,56.457648 L44.0062571,57.1933037 L33.4479834,50.1325258 C33.3299284,50.0528929 33.197663,50.0124445 33.0643046,50.0124445 C32.9309461,50.0124445 32.8008669,50.0516289 32.6817188,50.1312618 L25.5612514,54.8788955 C25.3240482,55.0368971 25.1775726,55.3288842 25.1775726,55.6448875 L25.1775726,75.2952374 C25.1775726,75.6112407 25.3240482,75.9032277 25.5612514,76.0612294 L41.7653977,86.8811828 C41.8823596,86.9595516 42.0157181,87 42.1479834,87 C42.2802488,87 42.411421,86.9608156 42.5305692,86.8811828 C42.7677723,86.7231811 42.914248,86.431194 42.914248,86.1151907 L42.914248,73.5774434 L43.9767433,72.8898202 L44.5418771,73.2627041 L54.7591029,80.0820555 C54.8771579,80.1604243 55.0094233,80.2008728 55.1416887,80.2008728 C55.273954,80.2008728 55.4051263,80.1616884 55.5242744,80.0820555 L62.6163211,75.357174 C62.8535243,75.1991724 63,74.9071853 63,74.591182 L63,46.3152058 C63,46.1597321 62.9650207,46.0067865 62.8972484,45.8715371 L55.8030155,31.6842525 Z" id="Path" fill="#EC5727" transform="translate(34.000000, 45.000000) scale(-1, 1) translate(-34.000000, -45.000000) "></path>
                <path d="M41.8340934,108.881296 C41.9527918,108.95959 42.0881302,109 42.2223592,109 C42.3565882,109 42.4897079,108.960853 42.6106249,108.881296 C42.8513497,108.723445 43,108.431735 43,108.116033 L43,94.7024625 C43,94.3867599 42.8513497,94.0950508 42.6117343,93.9371995 L26.1670159,83.1187042 C26.0472082,83.0404099 25.9129792,83 25.7776408,83 C25.6423025,83 25.5102921,83.0391471 25.3893751,83.1187042 C25.1486503,83.2765554 25,83.5682646 25,83.8839672 L25,97.30764 C25,97.6233426 25.1486503,97.9150517 25.3893751,98.072903 L41.8340934,108.881296 Z" id="Path" fill="#EC5727" transform="translate(34.000000, 96.000000) scale(-1, 1) translate(-34.000000, -96.000000) "></path>
            </g>
        </g>
    </g>
</svg>