<?xml version="1.0" encoding="UTF-8"?>
<svg width="183px" height="279px" viewBox="0 0 183 279" version="1.1" xmlns="http://www.w3.org/2000/svg" xmlns:xlink="http://www.w3.org/1999/xlink">
    <title>question_yellow</title>
    <g id="UI" stroke="none" stroke-width="1" fill="none" fill-rule="evenodd">
        <g id="Home-Copy-2" transform="translate(-1140.000000, -5706.000000)" fill-rule="nonzero" stroke="#000000" stroke-width="2">
            <g id="question_yellow" transform="translate(1141.000000, 5707.000000)">
                <g id="noun_Question_882781" transform="translate(8.000000, 0.000000)">
                    <path d="M151.533132,74.1009856 C151.330984,73.7548567 151.044063,73.4675043 150.695194,73.2650515 L24.5545232,0.306944549 C24.205654,0.104491761 23.8078779,0 23.4133622,0 C23.0188466,0 22.6243309,0.101226394 22.2689408,0.306944549 L1.14116095,12.5422767 C0.436901621,12.953713 0,13.7047476 0,14.5210895 L0,70.0551952 C0,70.8715371 0.436901621,71.625837 1.14442141,72.034008 L49.5068225,99.9855541 C49.8589521,100.188007 50.2534678,100.292499 50.6479834,100.292499 C51.0424991,100.292499 51.4370147,100.191272 51.7891444,99.9855541 C52.4966642,99.5773832 52.9335658,98.8230833 52.9335658,98.0067414 L52.9335658,61.2746219 L56.7417829,59.0802949 L58.5187335,60.0892935 L114.601904,92.5241893 L120.121862,102.072124 L120.121862,136.169092 L120.121862,138.098924 L116.34625,139.999368 L84.8534678,121.759025 C84.5013381,121.553307 84.1068225,121.448815 83.7090464,121.448815 C83.3112703,121.448815 82.9232755,121.550041 82.5678854,121.75576 L61.3292499,134.02048 C60.6217301,134.428651 60.1848285,135.182951 60.1848285,135.999293 L60.1848285,186.762697 C60.1848285,187.579038 60.6217301,188.333338 61.3292499,188.741509 L109.662307,216.693055 C110.011176,216.895508 110.408952,217 110.803468,217 C111.197983,217 111.589239,216.898774 111.944629,216.693055 C112.652149,216.284885 113.08905,215.530585 113.08905,214.714243 L113.08905,182.325062 L116.258217,180.548702 L117.943875,181.511986 L148.419393,199.128643 C148.771523,199.331096 149.166038,199.435588 149.560554,199.435588 C149.95507,199.435588 150.346325,199.334362 150.701715,199.128643 L171.855579,186.9227 C172.563098,186.514529 173,185.760229 173,184.943887 L173,111.897615 C173,111.495975 172.895665,111.100865 172.693517,110.751471 L151.533132,74.1009856 Z" id="Path"></path>
                    <path d="M110.567053,271.689543 C110.916554,271.894312 111.31505,272 111.71028,272 C112.10551,272 112.497473,271.897615 112.853507,271.689543 C113.562307,271.276701 114,270.513769 114,269.688086 L114,234.60644 C114,233.780757 113.562307,233.017825 112.856773,232.604983 L64.4362135,204.310457 C64.0834463,204.105688 63.6882164,204 63.2897202,204 C62.891224,204 62.5025268,204.102385 62.1464933,204.310457 C61.4376926,204.723299 61,205.486231 61,206.311914 L61,241.419982 C61,242.245665 61.4376926,243.008597 62.1464933,243.421439 L110.567053,271.689543 Z" id="Path"></path>
                </g>
                <g id="noun_Question_882781-Copy-3" transform="translate(0.000000, 5.000000)" fill="#FFBD58">
                    <path d="M151.533132,74.1009856 C151.330984,73.7548567 151.044063,73.4675043 150.695194,73.2650515 L24.5545232,0.306944549 C24.205654,0.104491761 23.8078779,0 23.4133622,0 C23.0188466,0 22.6243309,0.101226394 22.2689408,0.306944549 L1.14116095,12.5422767 C0.436901621,12.953713 0,13.7047476 0,14.5210895 L0,70.0551952 C0,70.8715371 0.436901621,71.625837 1.14442141,72.034008 L49.5068225,99.9855541 C49.8589521,100.188007 50.2534678,100.292499 50.6479834,100.292499 C51.0424991,100.292499 51.4370147,100.191272 51.7891444,99.9855541 C52.4966642,99.5773832 52.9335658,98.8230833 52.9335658,98.0067414 L52.9335658,61.2746219 L56.7417829,59.0802949 L58.5187335,60.0892935 L114.601904,92.5241893 L120.121862,102.072124 L120.121862,136.169092 L120.121862,138.098924 L116.34625,139.999368 L84.8534678,121.759025 C84.5013381,121.553307 84.1068225,121.448815 83.7090464,121.448815 C83.3112703,121.448815 82.9232755,121.550041 82.5678854,121.75576 L61.3292499,134.02048 C60.6217301,134.428651 60.1848285,135.182951 60.1848285,135.999293 L60.1848285,186.762697 C60.1848285,187.579038 60.6217301,188.333338 61.3292499,188.741509 L109.662307,216.693055 C110.011176,216.895508 110.408952,217 110.803468,217 C111.197983,217 111.589239,216.898774 111.944629,216.693055 C112.652149,216.284885 113.08905,215.530585 113.08905,214.714243 L113.08905,182.325062 L116.258217,180.548702 L117.943875,181.511986 L148.419393,199.128643 C148.771523,199.331096 149.166038,199.435588 149.560554,199.435588 C149.95507,199.435588 150.346325,199.334362 150.701715,199.128643 L171.855579,186.9227 C172.563098,186.514529 173,185.760229 173,184.943887 L173,111.897615 C173,111.495975 172.895665,111.100865 172.693517,110.751471 L151.533132,74.1009856 Z" id="Path"></path>
                    <path d="M110.567053,271.689543 C110.916554,271.894312 111.31505,272 111.71028,272 C112.10551,272 112.497473,271.897615 112.853507,271.689543 C113.562307,271.276701 114,270.513769 114,269.688086 L114,234.60644 C114,233.780757 113.562307,233.017825 112.856773,232.604983 L64.4362135,204.310457 C64.0834463,204.105688 63.6882164,204 63.2897202,204 C62.891224,204 62.5025268,204.102385 62.1464933,204.310457 C61.4376926,204.723299 61,205.486231 61,206.311914 L61,241.419982 C61,242.245665 61.4376926,243.008597 62.1464933,243.421439 L110.567053,271.689543 Z" id="Path"></path>
                </g>
            </g>
        </g>
    </g>
</svg>