<?xml version="1.0" encoding="UTF-8"?>
<svg width="114px" height="40px" viewBox="0 0 114 40" version="1.1" xmlns="http://www.w3.org/2000/svg" xmlns:xlink="http://www.w3.org/1999/xlink">
    <!-- Generator: Sketch 64 (93537) - https://sketch.com -->
    <title>Group 3</title>
    <desc>Created with Sketch.</desc>
    <g id="Page-1" stroke="none" stroke-width="1" fill="none" fill-rule="evenodd">
        <g id="Artboard-Copy" transform="translate(-55.000000, -66.000000)" fill-rule="nonzero">
            <g id="Group-3" transform="translate(55.708000, 66.960000)">
                <path d="M13.916,23.04 L14.492,19.808 L4.732,19.808 L5.916,13.248 L14.684,13.248 L15.228,10.112 L6.46,10.112 L7.548,3.872 L17.276,3.872 L17.884,0.64 L4.028,0.64 L0.06,23.04 L13.916,23.04 Z M27.324,23.04 L36.092,7.168 L31.74,7.168 L25.5,19.2 L23.452,7.168 L19.196,7.168 L22.3,23.04 L27.324,23.04 Z M41.788,4.8 C42.5346667,4.8 43.148,4.57066667 43.628,4.112 C44.108,3.65333333 44.348,3.08266667 44.348,2.4 C44.348,1.71733333 44.108,1.14666667 43.628,0.688 C43.148,0.229333333 42.5346667,-7.10542736e-15 41.788,-7.10542736e-15 C41.0413333,-7.10542736e-15 40.428,0.229333333 39.948,0.688 C39.468,1.14666667 39.228,1.71733333 39.228,2.4 C39.228,3.08266667 39.468,3.65333333 39.948,4.112 C40.428,4.57066667 41.0413333,4.8 41.788,4.8 Z M40.188,23.04 L42.972,7.168 L38.876,7.168 L36.092,23.04 L40.188,23.04 Z M54.172,23.04 L54.812,19.552 L52.636,19.552 C51.9746667,19.552 51.5,19.4453333 51.212,19.232 C50.924,19.0186667 50.78,18.656 50.78,18.144 C50.78,17.9306667 50.8013333,17.7173333 50.844,17.504 L50.844,17.504 L52.092,10.592 L56.348,10.592 L56.988,7.168 L52.668,7.168 L53.436,2.912 L49.788,2.912 L48.572,7.168 L46.012,7.168 L45.404,10.592 L47.964,10.592 L46.748,17.472 C46.6413333,18.048 46.588,18.5706667 46.588,19.04 C46.588,20.512 47.02,21.5466667 47.884,22.144 C48.748,22.7413333 49.9053333,23.04 51.356,23.04 L51.356,23.04 L54.172,23.04 Z M63.068,23.424 C64.3693333,23.424 65.484,23.152 66.412,22.608 C67.34,22.064 68.1133333,21.3866667 68.732,20.576 L68.732,20.576 L68.572,23.04 L72.22,23.04 L73.948,13.28 C73.9906667,13.0453333 74.0226667,12.8053333 74.044,12.56 C74.0653333,12.3146667 74.076,12.0853333 74.076,11.872 C74.076,10.2293333 73.516,8.97066667 72.396,8.096 C71.276,7.22133333 69.7346667,6.784 67.772,6.784 C66.428,6.784 65.18,7.01333333 64.028,7.472 C62.876,7.93066667 61.9,8.58666667 61.1,9.44 C60.3,10.2933333 59.74,11.296 59.42,12.448 L59.42,12.448 L63.42,12.448 C63.7186667,11.68 64.2146667,11.0986667 64.908,10.704 C65.6013333,10.3093333 66.364,10.112 67.196,10.112 C67.9853333,10.112 68.636,10.3093333 69.148,10.704 C69.66,11.0986667 69.916,11.7013333 69.916,12.512 C69.916,12.6186667 69.9106667,12.7413333 69.9,12.88 C69.8893333,13.0186667 69.8733333,13.152 69.852,13.28 L69.852,13.28 L69.788,13.664 L65.756,13.664 C63.3666667,13.664 61.4573333,14.1653333 60.028,15.168 C58.5986667,16.1706667 57.884,17.5253333 57.884,19.232 C57.884,20.384 58.3,21.3706667 59.132,22.192 C59.964,23.0133333 61.276,23.424 63.068,23.424 Z M64.572,20.224 C63.8893333,20.224 63.34,20.0906667 62.924,19.824 C62.508,19.5573333 62.3,19.1573333 62.3,18.624 C62.3,17.8773333 62.6093333,17.2906667 63.228,16.864 C63.8466667,16.4373333 64.6893333,16.224 65.756,16.224 L65.756,16.224 L69.212,16.224 C68.8493333,17.3546667 68.2786667,18.304 67.5,19.072 C66.7213333,19.84 65.7453333,20.224 64.572,20.224 Z M92.348,23.424 C94.076,23.424 95.612,23.12 96.956,22.512 C98.3,21.904 99.356,21.0453333 100.124,19.936 C100.892,18.8266667 101.276,17.5253333 101.276,16.032 C101.276,15.008 101.046667,14.1226667 100.588,13.376 C100.129333,12.6293333 99.5213333,11.9946667 98.764,11.472 C98.0066667,10.9493333 97.1693333,10.528 96.252,10.208 C95.3773333,9.888 94.5773333,9.584 93.852,9.296 C93.1266667,9.008 92.5506667,8.66666667 92.124,8.272 C91.6973333,7.87733333 91.484,7.34933333 91.484,6.688 C91.484,5.83466667 91.7986667,5.12533333 92.428,4.56 C93.0573333,3.99466667 93.916,3.712 95.004,3.712 C95.9853333,3.712 96.732,3.95733333 97.244,4.448 C97.756,4.93866667 98.012,5.51466667 98.012,6.176 C98.012,6.34666667 98.0013333,6.528 97.98,6.72 L97.98,6.72 L102.364,6.72 C102.385333,6.54933333 102.401333,6.37866667 102.412,6.208 C102.422667,6.03733333 102.428,5.87733333 102.428,5.728 C102.428,4.04266667 101.809333,2.70933333 100.572,1.728 C99.3346667,0.746666667 97.7026667,0.256 95.676,0.256 C93.9906667,0.256 92.5026667,0.554666667 91.212,1.152 C89.9213333,1.74933333 88.908,2.58666667 88.172,3.664 C87.436,4.74133333 87.068,5.99466667 87.068,7.424 C87.068,8.64 87.4413333,9.696 88.188,10.592 C88.9346667,11.488 90.012,12.192 91.42,12.704 C92.316,13.024 93.1746667,13.3333333 93.996,13.632 C94.8173333,13.9306667 95.4946667,14.304 96.028,14.752 C96.5613333,15.2 96.828,15.808 96.828,16.576 C96.828,17.6 96.476,18.4266667 95.772,19.056 C95.068,19.6853333 94.0973333,20 92.86,20 C91.7506667,20 90.8706667,19.7173333 90.22,19.152 C89.5693333,18.5866667 89.244,17.8453333 89.244,16.928 C89.244,16.736 89.2546667,16.5226667 89.276,16.288 L89.276,16.288 L84.924,16.288 C84.9026667,16.5013333 84.8813333,16.7093333 84.86,16.912 C84.8386667,17.1146667 84.828,17.3226667 84.828,17.536 C84.828,18.7733333 85.148,19.8346667 85.788,20.72 C86.428,21.6053333 87.3133333,22.2773333 88.444,22.736 C89.5746667,23.1946667 90.876,23.424 92.348,23.424 Z M105.916,23.264 C106.662667,23.264 107.270667,23.0293333 107.74,22.56 C108.209333,22.0906667 108.444,21.5253333 108.444,20.864 C108.444,20.1813333 108.209333,19.6053333 107.74,19.136 C107.270667,18.6666667 106.662667,18.432 105.916,18.432 C105.148,18.432 104.529333,18.6666667 104.06,19.136 C103.590667,19.6053333 103.356,20.1813333 103.356,20.864 C103.356,21.5253333 103.590667,22.0906667 104.06,22.56 C104.529333,23.0293333 105.148,23.264 105.916,23.264 Z" id="EvitaS." fill="#FFFFFF"></path>
                <path d="M2.052,38.04 L2.052,35.064 L3.324,35.064 C3.988,35.064 4.552,34.946 5.016,34.71 C5.48,34.474 5.83,34.15 6.066,33.738 C6.302,33.326 6.42,32.856 6.42,32.328 C6.42,31.48 6.156,30.806 5.628,30.306 C5.1,29.806 4.332,29.556 3.324,29.556 L3.324,29.556 L4.26325641e-14,29.556 L4.26325641e-14,38.04 L2.052,38.04 Z M3.096,33.42 L2.052,33.42 L2.052,31.212 L3.096,31.212 C3.92,31.212 4.332,31.584 4.332,32.328 C4.332,33.056 3.92,33.42 3.096,33.42 L3.096,33.42 Z M12.708,38.04 L12.708,36.396 L9.48,36.396 L9.48,34.512 L12.348,34.512 L12.348,32.964 L9.48,32.964 L9.48,31.188 L12.708,31.188 L12.708,29.556 L7.428,29.556 L7.428,38.04 L12.708,38.04 Z M15.924,38.04 L15.924,34.836 L16.392,34.836 L18.228,38.04 L20.496,38.04 L18.48,34.704 C19.128,34.544 19.622,34.248 19.962,33.816 C20.302,33.384 20.472,32.86 20.472,32.244 C20.472,31.724 20.356,31.262 20.124,30.858 C19.892,30.454 19.544,30.136 19.08,29.904 C18.616,29.672 18.048,29.556 17.376,29.556 L17.376,29.556 L13.872,29.556 L13.872,38.04 L15.924,38.04 Z M17.196,33.432 L15.924,33.432 L15.924,31.284 L17.196,31.284 C17.596,31.284 17.894,31.38 18.09,31.572 C18.286,31.764 18.384,32.028 18.384,32.364 C18.384,32.716 18.288,32.982 18.096,33.162 C17.904,33.342 17.604,33.432 17.196,33.432 L17.196,33.432 Z M24.636,38.124 C25.268,38.124 25.806,38.012 26.25,37.788 C26.694,37.564 27.03,37.264 27.258,36.888 C27.486,36.512 27.6,36.1 27.6,35.652 C27.6,35.1 27.476,34.652 27.228,34.308 C26.98,33.964 26.684,33.702 26.34,33.522 C25.996,33.342 25.552,33.16 25.008,32.976 C24.632,32.84 24.344,32.728 24.144,32.64 C23.944,32.552 23.778,32.438 23.646,32.298 C23.514,32.158 23.448,31.988 23.448,31.788 C23.448,31.54 23.522,31.352 23.67,31.224 C23.818,31.096 24.012,31.032 24.252,31.032 C24.532,31.032 24.754,31.114 24.918,31.278 C25.082,31.442 25.184,31.664 25.224,31.944 L25.224,31.944 L27.444,31.944 C27.372,31.16 27.058,30.544 26.502,30.096 C25.946,29.648 25.196,29.424 24.252,29.424 C23.668,29.424 23.15,29.522 22.698,29.718 C22.246,29.914 21.892,30.196 21.636,30.564 C21.38,30.932 21.252,31.368 21.252,31.872 C21.252,32.416 21.374,32.858 21.618,33.198 C21.862,33.538 22.154,33.794 22.494,33.966 C22.834,34.138 23.272,34.316 23.808,34.5 C24.176,34.628 24.464,34.738 24.672,34.83 C24.88,34.922 25.054,35.04 25.194,35.184 C25.334,35.328 25.404,35.508 25.404,35.724 C25.404,35.964 25.328,36.156 25.176,36.3 C25.024,36.444 24.816,36.516 24.552,36.516 C24.248,36.516 23.998,36.424 23.802,36.24 C23.606,36.056 23.492,35.804 23.46,35.484 L23.46,35.484 L21.276,35.484 C21.332,36.316 21.668,36.964 22.284,37.428 C22.9,37.892 23.684,38.124 24.636,38.124 Z M32.772,38.124 C33.564,38.124 34.286,37.938 34.938,37.566 C35.59,37.194 36.106,36.676 36.486,36.012 C36.866,35.348 37.056,34.6 37.056,33.768 C37.056,32.936 36.868,32.19 36.492,31.53 C36.116,30.87 35.602,30.354 34.95,29.982 C34.298,29.61 33.572,29.424 32.772,29.424 C31.98,29.424 31.258,29.61 30.606,29.982 C29.954,30.354 29.438,30.87 29.058,31.53 C28.678,32.19 28.488,32.936 28.488,33.768 C28.488,34.6 28.678,35.348 29.058,36.012 C29.438,36.676 29.954,37.194 30.606,37.566 C31.258,37.938 31.98,38.124 32.772,38.124 Z M32.772,36.204 C32.1,36.204 31.566,35.984 31.17,35.544 C30.774,35.104 30.576,34.512 30.576,33.768 C30.576,33.016 30.774,32.422 31.17,31.986 C31.566,31.55 32.1,31.332 32.772,31.332 C33.444,31.332 33.978,31.552 34.374,31.992 C34.77,32.432 34.968,33.024 34.968,33.768 C34.968,34.512 34.768,35.104 34.368,35.544 C33.968,35.984 33.436,36.204 32.772,36.204 Z M40.26,38.04 L40.26,32.832 L43.692,38.04 L45.744,38.04 L45.744,29.556 L43.692,29.556 L43.692,34.812 L40.26,29.556 L38.208,29.556 L38.208,38.04 L40.26,38.04 Z M48.708,38.04 L49.236,36.492 L52.416,36.492 L52.944,38.04 L55.128,38.04 L52.02,29.616 L49.656,29.616 L46.548,38.04 L48.708,38.04 Z M51.888,34.932 L49.764,34.932 L50.832,31.812 L51.888,34.932 Z M60.708,38.04 L60.708,36.468 L57.972,36.468 L57.972,29.556 L55.92,29.556 L55.92,38.04 L60.708,38.04 Z M67.848,38.04 L67.848,31.188 L70.152,31.188 L70.152,29.556 L63.504,29.556 L63.504,31.188 L65.784,31.188 L65.784,38.04 L67.848,38.04 Z M73.068,38.04 L73.068,34.836 L73.536,34.836 L75.372,38.04 L77.64,38.04 L75.624,34.704 C76.272,34.544 76.766,34.248 77.106,33.816 C77.446,33.384 77.616,32.86 77.616,32.244 C77.616,31.724 77.5,31.262 77.268,30.858 C77.036,30.454 76.688,30.136 76.224,29.904 C75.76,29.672 75.192,29.556 74.52,29.556 L74.52,29.556 L71.016,29.556 L71.016,38.04 L73.068,38.04 Z M74.34,33.432 L73.068,33.432 L73.068,31.284 L74.34,31.284 C74.74,31.284 75.038,31.38 75.234,31.572 C75.43,31.764 75.528,32.028 75.528,32.364 C75.528,32.716 75.432,32.982 75.24,33.162 C75.048,33.342 74.748,33.432 74.34,33.432 L74.34,33.432 Z M80.196,38.04 L80.724,36.492 L83.904,36.492 L84.432,38.04 L86.616,38.04 L83.508,29.616 L81.144,29.616 L78.036,38.04 L80.196,38.04 Z M83.376,34.932 L81.252,34.932 L82.32,31.812 L83.376,34.932 Z M89.46,38.04 L89.46,29.556 L87.408,29.556 L87.408,38.04 L89.46,38.04 Z M92.928,38.04 L92.928,32.832 L96.36,38.04 L98.412,38.04 L98.412,29.556 L96.36,29.556 L96.36,34.812 L92.928,29.556 L90.876,29.556 L90.876,38.04 L92.928,38.04 Z M105.108,38.04 L105.108,36.396 L101.88,36.396 L101.88,34.512 L104.748,34.512 L104.748,32.964 L101.88,32.964 L101.88,31.188 L105.108,31.188 L105.108,29.556 L99.828,29.556 L99.828,38.04 L105.108,38.04 Z M108.324,38.04 L108.324,34.836 L108.792,34.836 L110.628,38.04 L112.896,38.04 L110.88,34.704 C111.528,34.544 112.022,34.248 112.362,33.816 C112.702,33.384 112.872,32.86 112.872,32.244 C112.872,31.724 112.756,31.262 112.524,30.858 C112.292,30.454 111.944,30.136 111.48,29.904 C111.016,29.672 110.448,29.556 109.776,29.556 L109.776,29.556 L106.272,29.556 L106.272,38.04 L108.324,38.04 Z M109.596,33.432 L108.324,33.432 L108.324,31.284 L109.596,31.284 C109.996,31.284 110.294,31.38 110.49,31.572 C110.686,31.764 110.784,32.028 110.784,32.364 C110.784,32.716 110.688,32.982 110.496,33.162 C110.304,33.342 110.004,33.432 109.596,33.432 L109.596,33.432 Z" id="PERSONALTRAINER" fill="#7DFF8A"></path>
            </g>
        </g>
    </g>
</svg>